<svg width="7" height="12" viewBox="0 0 7 12" fill="none" xmlns="http://www.w3.org/2000/svg">
<path d="M6.39777 5.6628L0.360269 0.947179C0.344493 0.934759 0.325533 0.92704 0.305568 0.92491C0.285603 0.922779 0.265441 0.926323 0.247399 0.935134C0.229357 0.943945 0.214166 0.957666 0.203571 0.974722C0.192976 0.991778 0.187406 1.01148 0.187501 1.03155V2.06682C0.187501 2.13245 0.218305 2.19539 0.269198 2.23557L5.09063 6.0003L0.269198 9.76504C0.216966 9.80521 0.187501 9.86816 0.187501 9.93379V10.9691C0.187501 11.0588 0.290626 11.1083 0.360269 11.0534L6.39777 6.3378C6.44908 6.29778 6.4906 6.24657 6.51915 6.18809C6.5477 6.12961 6.56254 6.06538 6.56254 6.0003C6.56254 5.93522 6.5477 5.871 6.51915 5.81252C6.4906 5.75403 6.44908 5.70283 6.39777 5.6628Z" fill="#262D34"/>
</svg>
