<svg width="7" height="12" viewBox="0 0 7 12" fill="none" xmlns="http://www.w3.org/2000/svg">
<path d="M6.83962 2.06622V1.03095C6.83962 0.941219 6.7365 0.891665 6.66685 0.946576L0.629351 5.6622C0.578054 5.70209 0.536546 5.75318 0.507994 5.81155C0.479442 5.86992 0.4646 5.93405 0.4646 5.99903C0.4646 6.06401 0.479442 6.12814 0.507994 6.18651C0.536546 6.24489 0.578054 6.29597 0.629351 6.33586L6.66685 11.0515C6.73783 11.1064 6.83962 11.0568 6.83962 10.9671V9.93184C6.83962 9.86622 6.80882 9.80327 6.75792 9.76309L1.93649 5.9997L6.75792 2.23497C6.80882 2.19479 6.83962 2.13184 6.83962 2.06622Z" fill="#262D34"/>
</svg>
