<svg width="17" height="23" viewBox="0 0 17 23" fill="none" xmlns="http://www.w3.org/2000/svg">
<path d="M2.06079 4.70986C2.91461 4.71415 3.6048 5.42 3.609 6.29319V14.5081C3.609 14.7205 3.62368 14.935 3.65095 15.1453C3.75584 16.1644 4.04535 17.1577 4.50058 18.0717C4.97679 19.0264 5.63341 19.8781 6.43269 20.5711C7.20679 21.2405 8.10256 21.7447 9.06757 22.0579C9.49343 22.1973 9.93188 22.296 10.3766 22.3561C6.14318 23.4653 1.83422 20.8543 0.749643 16.5269C0.581816 15.8661 0.5 15.1882 0.5 14.5081V6.29319C0.504196 5.41571 1.20278 4.70557 2.06079 4.70986Z" fill="#0ABB87"/>
<path d="M7.19962 19.8262C7.00882 19.5849 6.83088 19.3303 6.67224 19.0649C7.34112 19.3347 8.0593 19.451 8.77748 19.4049C11.3865 19.2404 13.3846 16.9389 13.3846 14.2644V2.08328C13.3717 1.19251 14.0449 0.446551 14.9153 0.389507C15.7921 0.363179 16.5231 1.06965 16.5489 1.967C16.5489 1.98235 16.5489 1.99771 16.5489 2.01307V14.4004C16.551 16.0723 16.0558 17.7046 15.1275 19.0802C13.4939 21.498 10.2546 22.1036 7.88994 20.4317C7.77631 20.3528 7.66698 20.2672 7.55979 20.1794C7.42901 20.0741 7.30681 19.9556 7.19748 19.8284L7.19962 19.8262Z" fill="#0ABB87"/>
<path d="M8.83517 15.2037C10.3693 15.2037 11.613 13.9601 11.613 12.4259C11.613 10.8918 10.3693 9.64813 8.83517 9.64813C7.30104 9.64813 6.05737 10.8918 6.05737 12.4259C6.05737 13.9601 7.30104 15.2037 8.83517 15.2037Z" fill="#0ABB87"/>
</svg>
